<svg xmlns="http://www.w3.org/2000/svg" width="799.031" height="618.112">
  <g transform="translate(-893 -197)">
    <path fill="#ccc" d="M1022.891 813.539c0 .872.478 1.573 1.073 1.573h535.1c.6 0 1.073-.7 1.073-1.573s-.478-1.573-1.073-1.573h-535.1c-.595.001-1.073.701-1.073 1.573Z"/>
    <path fill="#b6b3c5" d="M1198.162 808.354h19.105v3.371h-19.105zM1367.295 808.917h19.105v3.371h-19.105z"/>
    <path fill="#d6d6e3" d="M1319.676 658.323a27.529 27.529 0 0 1-54.321 0h-69.488v150.591h193.3V658.323Z"/>
    <path fill="#090814" d="M1196.43 796.983h193.296v5.242H1196.43zM1681.255 662.259H903.776A10.788 10.788 0 0 1 893 651.483V207.777A10.788 10.788 0 0 1 903.776 197h777.479a10.789 10.789 0 0 1 10.776 10.776v443.707a10.789 10.789 0 0 1-10.776 10.776Z"/>
    <path fill="#fff" d="M911.104 213.968h760.822v429.297H911.104z"/>
    <g transform="translate(20.477 16.308)">
      <path fill="#6c63ff" d="M1416.111 465.097H1129.09a8.655 8.655 0 0 1-8.645-8.645v-96.826a8.655 8.655 0 0 1 8.645-8.645h287.021a8.655 8.655 0 0 1 8.645 8.645v96.826a8.655 8.655 0 0 1-8.645 8.645Z"/>
      <rect width="76.078" height="8.645" fill="#fff" rx="2" transform="translate(1165.4 380.374)"/>
      <circle cx="5.187" cy="5.187" r="5.187" fill="#090814" transform="translate(1336.576 380.374)"/>
      <circle cx="5.187" cy="5.187" r="5.187" fill="#090814" transform="translate(1353.865 380.374)"/>
      <circle cx="5.187" cy="5.187" r="5.187" fill="#090814" transform="translate(1371.156 380.374)"/>
    </g>
    <circle cx="40.952" cy="40.952" r="40.952" fill="#090814" transform="translate(1404.281 440.452)"/>
    <path fill="#fff" d="m1441.623 489.054-.524-29.6h8.246l-.554 29.6Zm3.613 14.307a4.7 4.7 0 0 1-3.409-1.3 4.368 4.368 0 0 1-1.34-3.278 4.39 4.39 0 0 1 1.34-3.322 4.732 4.732 0 0 1 3.409-1.282 4.732 4.732 0 0 1 3.409 1.282 4.39 4.39 0 0 1 1.34 3.322 4.368 4.368 0 0 1-1.34 3.278 4.7 4.7 0 0 1-3.409 1.299Z"/>
  </g>
</svg>
